<?xml version="1.0" encoding="utf-8"?>
<!-- Svg Vector Icons : http://www.onlinewebfonts.com/icon -->
<!DOCTYPE svg PUBLIC "-//W3C//DTD SVG 1.1//EN" "http://www.w3.org/Graphics/SVG/1.1/DTD/svg11.dtd">
<svg version="1.1" xmlns="http://www.w3.org/2000/svg" xmlns:xlink="http://www.w3.org/1999/xlink" x="0px" y="0px" viewBox="0 0 1000 1000" enable-background="new 0 0 1000 1000" xml:space="preserve">
<metadata> Svg Vector Icons : http://www.onlinewebfonts.com/icon </metadata>
<g><path d="M812.5,388.6H656.2v44.6h156.2c12.3,0,22.3,10,22.3,22.2v467.7c0,12.3-10,22.2-22.3,22.2H187.5c-12.3,0-22.3-10-22.3-22.2V455.5c0-12.3,10-22.2,22.3-22.2h156.2v-44.6H187.5c-36.9,0-67,30-67,66.9v467.7c0,36.8,30,66.8,67,66.8h624.9c36.9,0,67-30,67-66.8V455.5C879.4,418.6,849.4,388.6,812.5,388.6z"/><path d="M477.7,76.5v650h44.6V75.7l207.9,195.6l30.6-32.5L531.5,23.1c-17.4-17.3-45.7-17.4-62.6-0.4L239.2,238.8l30.6,32.5L477.7,76.5z"/></g>
</svg>