<?xml version="1.0" standalone="no"?>
<!DOCTYPE svg PUBLIC "-//W3C//DTD SVG 20010904//EN"
 "http://www.w3.org/TR/2001/REC-SVG-20010904/DTD/svg10.dtd">
<svg version="1.0" xmlns="http://www.w3.org/2000/svg"
 width="94.000000pt" height="104.000000pt" viewBox="0 0 94.000000 104.000000"
 preserveAspectRatio="xMidYMid meet">
<metadata>
Created by potrace 1.14, written by Peter Selinger 2001-2017
</metadata>
<g transform="translate(0.000000,104.000000) scale(0.100000,-0.100000)"
fill="#000000" stroke="none">
<path d="M488 974 l-88 -36 26 -34 c15 -19 31 -34 37 -34 6 0 20 -9 32 -20 11
-11 38 -23 60 -28 l39 -8 51 -130 c40 -102 65 -148 114 -212 34 -45 64 -82 67
-82 2 0 -3 17 -12 38 -22 53 -182 456 -207 524 -12 32 -24 58 -27 58 -3 -1
-44 -17 -92 -36z"/>
<path d="M708 993 c-43 -2 -78 -7 -78 -10 0 -3 5 -23 12 -44 10 -34 15 -39 40
-39 21 0 40 -11 67 -40 21 -22 45 -40 53 -40 18 0 22 -24 39 -255 11 -141 13
-153 42 -197 17 -27 32 -46 34 -45 3 3 -30 467 -43 610 l-7 67 -41 -2 c-22 -1
-76 -4 -118 -5z"/>
<path d="M180 824 c-91 -69 -166 -127 -168 -129 -2 -2 29 -46 70 -98 40 -52
155 -203 256 -336 101 -132 187 -243 192 -246 6 -4 277 196 333 245 4 4 -48
79 -115 167 -68 89 -185 243 -261 342 -76 100 -139 181 -140 181 -1 0 -76 -57
-167 -126z m192 -62 l40 4 142 -186 c79 -102 145 -191 149 -196 3 -6 -1 -29
-8 -52 -8 -23 -12 -54 -9 -69 5 -25 0 -33 -40 -61 -44 -32 -46 -32 -71 -16
-18 12 -36 15 -65 10 l-39 -6 -78 102 c-43 57 -110 145 -150 196 -40 51 -73
95 -73 96 0 2 7 20 15 40 9 21 13 51 10 69 -5 29 -1 35 37 63 41 30 44 31 72
17 16 -9 46 -13 68 -11z"/>
</g>
</svg>
