<!--?xml version="1.0" standalone="no"?-->

<svg xmlns="http://www.w3.org/2000/svg" width="300.000000pt" height="300.000000pt" viewBox="0 0 300.000000 300.000000" preserveAspectRatio="xMidYMid meet">
<g transform="translate(0.000000,300.000000) scale(0.100000,-0.100000)" fill="#1F1F1D" stroke="none">
<path style="position: relative;" d="M1355 2994 c-184 -27 -335 -64 -402 -99 -15 -8 -32 -15 -36 -15 -15
0 -132 -59 -187 -94 -222 -142 -383 -299 -497 -485 -44 -73 -103 -187 -114
-221 -7 -19 -15 -39 -19 -45 -13 -17 -58 -176 -77 -270 -13 -68 -17 -135 -16
-275 1 -160 4 -199 26 -290 29 -123 53 -207 66 -235 119 -260 177 -350 325
-503 126 -132 275 -240 426 -310 126 -59 152 -69 190 -77 19 -4 40 -11 45 -15
6 -4 62 -18 125 -31 164 -33 417 -33 575 -1 155 33 226 57 374 128 287 137
558 412 693 701 70 152 86 200 119 358 30 143 33 410 5 550 -32 165 -57 239
-137 400 -63 127 -77 150 -151 248 -98 129 -279 296 -379 350 -13 7 -42 24
-64 38 -35 22 -121 63 -220 104 -129 54 -303 85 -490 90 -82 2 -163 1 -180 -1z
m450 -218 c197 -49 347 -122 500 -242 241 -188 400 -437 476 -744 20 -82 23
-120 24 -285 0 -203 -9 -265 -63 -425 -41 -123 -170 -360 -195 -360 -5 0 -21
8 -35 19 -35 24 -144 75 -252 117 -144 56 -281 113 -377 159 l-93 44 0 107 c0
99 2 110 26 141 33 43 53 93 68 168 11 53 16 62 46 76 49 23 80 82 79 149 0
71 -18 122 -47 135 -19 8 -21 15 -15 45 4 19 7 85 7 145 1 106 0 112 -32 171
-127 235 -434 312 -677 170 -59 -35 -132 -118 -163 -184 -28 -63 -35 -160 -19
-277 8 -57 8 -60 -15 -70 -28 -12 -47 -62 -47 -128 -1 -76 30 -131 91 -161 16
-8 25 -25 30 -55 11 -62 37 -129 70 -178 28 -41 29 -46 26 -149 -2 -82 -6
-109 -18 -115 -8 -5 -53 -26 -100 -48 -81 -37 -120 -53 -414 -172 -71 -29
-151 -67 -179 -86 -27 -18 -50 -33 -52 -33 -8 0 -96 142 -129 208 -49 97 -79
179 -107 292 -20 83 -23 120 -23 290 0 172 2 206 23 290 137 548 559 932 1116
1014 17 2 107 3 200 1 141 -3 187 -8 270 -29z" id="node1" class="node"></path>
</g>
<g transform="translate(0.000000,300.000000) scale(0.100000,-0.100000)" fill="#A2A2A1" stroke="none">





</g>
</svg>