<?xml version="1.0" encoding="UTF-8"?>
<svg width="136px" height="133px" viewBox="0 0 136 133" version="1.1" xmlns="http://www.w3.org/2000/svg" xmlns:xlink="http://www.w3.org/1999/xlink">
    <!-- Generator: Sketch 49.3 (51167) - http://www.bohemiancoding.com/sketch -->
    <title>CHAT ICON@2x</title>
    <desc>Created with Sketch.</desc>
    <defs></defs>
    <g id="Page-1" stroke="none" stroke-width="1" fill="none" fill-rule="evenodd">
        <g id="Online--Support---No-Msg" transform="translate(-120.000000, -206.000000)" fill="#C7C7C7" fill-rule="nonzero">
            <g id="CHAT-ICON" transform="translate(120.000000, 206.000000)">
                <path d="M88.4722222,86.5 C88.4722222,98.2808378 79.9687778,107.864865 69.5138889,107.864865 L41.4681944,107.864865 L39.1679167,107.864865 L38.9505278,110.142108 C37.8939167,121.352378 32.7726389,127.613541 22.6463611,129.69473 C27.6538889,124.225324 28.7408333,117.32573 28.9986667,110.471378 L29.09725,107.864865 L26.4734167,107.864865 L24.0138889,107.864865 C12.9700278,107.864865 2.52777778,97.4815405 2.52777778,86.5 L2.52777778,61.3648649 C2.52777778,50.968973 12.1661944,42.5135135 24.0138889,42.5135135 L42.9722222,42.5135135 L42.9722222,40 L24.0138889,40 C11.5013889,40 0,48.922973 0,61.3648649 L0,86.5 C0,98.9418919 11.5013889,110.378378 24.0138889,110.378378 L26.4734167,110.378378 C26.0967778,120.432432 23.8824444,128.086081 13.9027778,133 C28.6574167,133 39.8074444,127.972973 41.4681944,110.378378 L69.5138889,110.378378 C82.0263889,110.378378 91,98.9418919 91,86.5 L91,67.6486486 L88.4722222,67.6486486 L88.4722222,86.5 Z" id="Shape"></path>
                <path d="M117.041667,0 L66.4861111,0 C55.3638889,0 45,7.79428571 45,18.8571429 L45,44 C45,55.0628571 55.3638889,65.3714286 66.4861111,65.3714286 L99.5873611,65.3714286 C101.248111,82.9714286 112.398139,88 127.152778,88 C117.175639,83.0845714 114.961306,75.4285714 114.582139,65.3714286 L117.041667,65.3714286 C128.163889,65.3714286 136,55.0628571 136,44 L136,18.8571429 C136,7.79428571 128.163889,0 117.041667,0 Z M133.472222,44 C133.472222,53.0690286 127.190694,62.8571429 117.041667,62.8571429 L114.582139,62.8571429 L111.958306,62.8571429 L112.056889,65.4644571 C112.314722,72.3234286 113.399139,79.2251429 118.409194,84.6937143 C108.282917,82.6118857 103.161639,76.3488 102.105028,65.1350857 L101.887639,62.8571429 L99.5873611,62.8571429 L66.4861111,62.8571429 C56.7415278,62.8571429 47.5277778,53.6925714 47.5277778,44 L47.5277778,18.8571429 C47.5277778,8.76228571 57.3684167,2.51428571 66.4861111,2.51428571 L117.041667,2.51428571 C126.715472,2.51428571 133.472222,9.23497143 133.472222,18.8571429 L133.472222,44 Z" id="Shape"></path>
                <path d="M112.5,29 C108.3575,29 105,32.3575 105,36.5 C105,40.6425 108.3575,44 112.5,44 C116.6425,44 120,40.6425 120,36.5 C120,32.3575 116.6425,29 112.5,29 Z M112.5,41.5 C109.7425,41.5 107.5,39.2575 107.5,36.5 C107.5,33.7425 109.7425,31.5 112.5,31.5 C115.2575,31.5 117.5,33.7425 117.5,36.5 C117.5,39.2575 115.2575,41.5 112.5,41.5 Z" id="Shape"></path>
                <path d="M91.5,29 C87.3575,29 84,32.3575 84,36.5 C84,40.6425 87.3575,44 91.5,44 C95.6425,44 99,40.6425 99,36.5 C99,32.3575 95.6425,29 91.5,29 Z M91.5,41.5 C88.7425,41.5 86.5,39.2575 86.5,36.5 C86.5,33.7425 88.7425,31.5 91.5,31.5 C94.2575,31.5 96.5,33.7425 96.5,36.5 C96.5,39.2575 94.2575,41.5 91.5,41.5 Z" id="Shape"></path>
                <path d="M71.5,29 C67.3575,29 64,32.3575 64,36.5 C64,40.6425 67.3575,44 71.5,44 C75.6425,44 79,40.6425 79,36.5 C79,32.3575 75.6425,29 71.5,29 Z M71.5,41.5 C68.7425,41.5 66.5,39.2575 66.5,36.5 C66.5,33.7425 68.7425,31.5 71.5,31.5 C74.2575,31.5 76.5,33.7425 76.5,36.5 C76.5,39.2575 74.2575,41.5 71.5,41.5 Z" id="Shape"></path>
                <g id="Group" transform="translate(21.000000, 63.000000)">
                    <rect id="Rectangle-path" x="0" y="0" width="30" height="4" rx="2"></rect>
                    <rect id="Rectangle-path" x="0" y="12" width="50" height="4" rx="2"></rect>
                    <rect id="Rectangle-path" x="0" y="23" width="50" height="4" rx="2"></rect>
                </g>
            </g>
        </g>
    </g>
</svg>